<svg width="370" height="69" viewBox="0 0 370 69" fill="none" xmlns="http://www.w3.org/2000/svg">
<path d="M38.032 28.008H48.688V48.456C45.952 50.52 42.784 52.104 39.184 53.208C35.584 54.312 31.96 54.864 28.312 54.864C23.08 54.864 18.376 53.76 14.2 51.552C10.024 49.296 6.736 46.2 4.336 42.264C1.984 38.28 0.808 33.792 0.808 28.8C0.808 23.808 1.984 19.344 4.336 15.408C6.736 11.424 10.048 8.328 14.272 6.12C18.496 3.864 23.248 2.736 28.528 2.736C32.944 2.736 36.952 3.48 40.552 4.968C44.152 6.456 47.176 8.616 49.624 11.448L42.136 18.36C38.536 14.568 34.192 12.672 29.104 12.672C25.888 12.672 23.032 13.344 20.536 14.688C18.04 16.032 16.096 17.928 14.704 20.376C13.312 22.824 12.616 25.632 12.616 28.8C12.616 31.92 13.312 34.704 14.704 37.152C16.096 39.6 18.016 41.52 20.464 42.912C22.96 44.256 25.792 44.928 28.96 44.928C32.32 44.928 35.344 44.208 38.032 42.768V28.008ZM299.574 15.264V47.52C299.574 54.624 297.726 59.904 294.03 63.36C290.334 66.816 284.934 68.544 277.83 68.544C274.086 68.544 270.534 68.088 267.174 67.176C263.814 66.264 261.03 64.944 258.822 63.216L263.286 55.152C264.918 56.496 266.982 57.552 269.478 58.32C271.974 59.136 274.47 59.544 276.966 59.544C280.854 59.544 283.71 58.656 285.534 56.88C287.406 55.152 288.342 52.512 288.342 48.96V47.304C285.414 50.52 281.334 52.128 276.102 52.128C272.55 52.128 269.286 51.36 266.31 49.824C263.382 48.24 261.054 46.032 259.326 43.2C257.598 40.368 256.734 37.104 256.734 33.408C256.734 29.712 257.598 26.448 259.326 23.616C261.054 20.784 263.382 18.6 266.31 17.064C269.286 15.48 272.55 14.688 276.102 14.688C281.718 14.688 285.99 16.536 288.918 20.232V15.264H299.574ZM278.334 42.912C281.31 42.912 283.734 42.048 285.606 40.32C287.526 38.544 288.486 36.24 288.486 33.408C288.486 30.576 287.526 28.296 285.606 26.568C283.734 24.792 281.31 23.904 278.334 23.904C275.358 23.904 272.91 24.792 270.99 26.568C269.07 28.296 268.11 30.576 268.11 33.408C268.11 36.24 269.07 38.544 270.99 40.32C272.91 42.048 275.358 42.912 278.334 42.912Z" fill="#2F80ED"/>
<path d="M69.4589 20.376C70.8029 18.504 72.6029 17.088 74.8589 16.128C77.1629 15.168 79.8029 14.688 82.7789 14.688V25.056C81.5309 24.96 80.6909 24.912 80.2589 24.912C77.0429 24.912 74.5229 25.824 72.6989 27.648C70.8749 29.424 69.9629 32.112 69.9629 35.712V54H58.7309V15.264H69.4589V20.376ZM233.706 14.688C238.554 14.688 242.394 16.128 245.226 19.008C248.106 21.84 249.546 26.112 249.546 31.824V54H238.314V33.552C238.314 30.48 237.666 28.2 236.37 26.712C235.122 25.176 233.322 24.408 230.97 24.408C228.33 24.408 226.242 25.272 224.706 27C223.17 28.68 222.402 31.2 222.402 34.56V54H211.17V33.552C211.17 27.456 208.722 24.408 203.826 24.408C201.234 24.408 199.17 25.272 197.634 27C196.098 28.68 195.33 31.2 195.33 34.56V54H184.098V15.264H194.826V19.728C196.266 18.096 198.018 16.848 200.082 15.984C202.194 15.12 204.498 14.688 206.994 14.688C209.73 14.688 212.202 15.24 214.41 16.344C216.618 17.4 218.394 18.96 219.738 21.024C221.322 19.008 223.314 17.448 225.714 16.344C228.162 15.24 230.826 14.688 233.706 14.688Z" fill="#27AE60"/>
<path d="M108.171 54.576C104.091 54.576 100.419 53.736 97.1547 52.056C93.9387 50.328 91.4187 47.952 89.5947 44.928C87.7707 41.904 86.8587 38.472 86.8587 34.632C86.8587 30.792 87.7707 27.36 89.5947 24.336C91.4187 21.312 93.9387 18.96 97.1547 17.28C100.419 15.552 104.091 14.688 108.171 14.688C112.251 14.688 115.899 15.552 119.115 17.28C122.331 18.96 124.851 21.312 126.675 24.336C128.499 27.36 129.411 30.792 129.411 34.632C129.411 38.472 128.499 41.904 126.675 44.928C124.851 47.952 122.331 50.328 119.115 52.056C115.899 53.736 112.251 54.576 108.171 54.576ZM108.171 45.36C111.051 45.36 113.403 44.4 115.227 42.48C117.099 40.512 118.035 37.896 118.035 34.632C118.035 31.368 117.099 28.776 115.227 26.856C113.403 24.888 111.051 23.904 108.171 23.904C105.291 23.904 102.915 24.888 101.043 26.856C99.1707 28.776 98.2347 31.368 98.2347 34.632C98.2347 37.896 99.1707 40.512 101.043 42.48C102.915 44.4 105.291 45.36 108.171 45.36ZM310.028 0.575997H321.26V54H310.028V0.575997Z" fill="#EB5757"/>
<path d="M155.35 54.576C151.27 54.576 147.598 53.736 144.334 52.056C141.118 50.328 138.598 47.952 136.774 44.928C134.95 41.904 134.038 38.472 134.038 34.632C134.038 30.792 134.95 27.36 136.774 24.336C138.598 21.312 141.118 18.96 144.334 17.28C147.598 15.552 151.27 14.688 155.35 14.688C159.43 14.688 163.078 15.552 166.294 17.28C169.51 18.96 172.03 21.312 173.854 24.336C175.678 27.36 176.59 30.792 176.59 34.632C176.59 38.472 175.678 41.904 173.854 44.928C172.03 47.952 169.51 50.328 166.294 52.056C163.078 53.736 159.43 54.576 155.35 54.576ZM155.35 45.36C158.23 45.36 160.582 44.4 162.406 42.48C164.278 40.512 165.214 37.896 165.214 34.632C165.214 31.368 164.278 28.776 162.406 26.856C160.582 24.888 158.23 23.904 155.35 23.904C152.47 23.904 150.094 24.888 148.222 26.856C146.35 28.776 145.414 31.368 145.414 34.632C145.414 37.896 146.35 40.512 148.222 42.48C150.094 44.4 152.47 45.36 155.35 45.36ZM369.628 34.776C369.628 34.92 369.556 35.928 369.412 37.8H340.108C340.636 40.2 341.884 42.096 343.852 43.488C345.82 44.88 348.268 45.576 351.196 45.576C353.212 45.576 354.988 45.288 356.524 44.712C358.108 44.088 359.572 43.128 360.916 41.832L366.892 48.312C363.244 52.488 357.916 54.576 350.908 54.576C346.54 54.576 342.676 53.736 339.316 52.056C335.956 50.328 333.364 47.952 331.54 44.928C329.716 41.904 328.804 38.472 328.804 34.632C328.804 30.84 329.692 27.432 331.468 24.408C333.292 21.336 335.764 18.96 338.884 17.28C342.052 15.552 345.58 14.688 349.468 14.688C353.26 14.688 356.692 15.504 359.764 17.136C362.836 18.768 365.236 21.12 366.964 24.192C368.74 27.216 369.628 30.744 369.628 34.776ZM349.54 23.184C346.996 23.184 344.86 23.904 343.132 25.344C341.404 26.784 340.348 28.752 339.964 31.248H359.044C358.66 28.8 357.604 26.856 355.876 25.416C354.148 23.928 352.036 23.184 349.54 23.184Z" fill="#F2994A"/>
</svg>
