<svg width="18" height="24" viewBox="0 0 18 24" fill="none" xmlns="http://www.w3.org/2000/svg">
<path d="M16.3848 9.23083C16.1346 9.23083 15.9184 9.32204 15.7356 9.50454C15.5529 9.68753 15.4617 9.90403 15.4617 10.1537V12.0002C15.4617 13.7795 14.8293 15.3013 13.565 16.5655C12.3004 17.8298 10.7787 18.462 8.99995 18.462C7.22093 18.462 5.69914 17.8298 4.43486 16.5655C3.17032 15.3013 2.53818 13.7795 2.53818 12.0002V10.154C2.53818 9.9043 2.44667 9.6881 2.26421 9.50481C2.08149 9.32235 1.86498 9.2311 1.61505 9.2311C1.36485 9.2311 1.14834 9.32235 0.965928 9.50481C0.783162 9.68779 0.691956 9.9043 0.691956 10.154V12.0002C0.691956 14.1255 1.40075 15.9739 2.81943 17.5458C4.23754 19.1183 5.99013 20.0199 8.07681 20.2501V22.1544H4.38441C4.13421 22.1544 3.9177 22.2451 3.73524 22.4281C3.55252 22.6105 3.46127 22.827 3.46127 23.0772C3.46127 23.3268 3.55252 23.543 3.73524 23.7263C3.9177 23.9088 4.13416 24 4.38441 24H13.6155C13.8655 24 14.0819 23.9088 14.2646 23.7263C14.4471 23.5434 14.5386 23.3268 14.5386 23.0772C14.5386 22.827 14.4471 22.6108 14.2646 22.4281C14.0819 22.2451 13.8655 22.1544 13.6155 22.1544H9.92308V20.2501C12.0095 20.0196 13.7617 19.1181 15.1805 17.5458C16.5986 15.9738 17.3079 14.1255 17.3079 12.0002V10.154C17.3079 9.9043 17.2164 9.6881 17.0339 9.50481C16.851 9.32231 16.6348 9.23083 16.3848 9.23083Z" fill="#BBBBBB"/>
<path d="M6.82443 8.986H4.3844V10.6789H6.82443C7.1972 10.6789 7.49922 10.9809 7.49922 11.3537C7.49922 11.7264 7.1972 12.0284 6.82443 12.0284H4.38577C4.39251 13.2854 4.8433 14.3629 5.74019 15.2599C6.64387 16.1641 7.73081 16.6154 8.99993 16.6154C10.2691 16.6154 11.3558 16.1641 12.2597 15.2599C13.1563 14.3629 13.6074 13.2854 13.6141 12.0284H11.2605C10.8877 12.0284 10.5857 11.7264 10.5857 11.3537C10.5857 10.9809 10.8877 10.6789 11.2605 10.6789H13.6155V8.986H11.2605C10.8877 8.986 10.5857 8.68393 10.5857 8.31121C10.5857 7.93849 10.8877 7.63642 11.2605 7.63642H13.6155V5.83717H11.2605C10.8877 5.83717 10.5857 5.5351 10.5857 5.16238C10.5857 4.78966 10.8877 4.4876 11.2605 4.4876H13.6098C13.5802 3.27382 13.1326 2.22896 12.26 1.35548C11.356 0.451842 10.2694 0 9.0002 0C7.73081 0 6.64414 0.451842 5.74045 1.35548C4.86755 2.22891 4.4203 3.27377 4.39062 4.4876H6.82496C7.19773 4.4876 7.49975 4.78962 7.49975 5.16238C7.49975 5.53515 7.19773 5.83717 6.82496 5.83717H4.38493V7.63642H6.82496C7.19773 7.63642 7.49975 7.93845 7.49975 8.31121C7.49975 8.68397 7.1972 8.986 6.82443 8.986Z" fill="#BBBBBB"/>
</svg>
