<svg width="20" height="20" viewBox="0 0 20 20" fill="none" xmlns="http://www.w3.org/2000/svg">
<path d="M19.5945 17.6406L15.3679 13.4133C16.3952 11.9844 16.9599 10.2769 16.9599 8.47949C16.9599 6.21548 16.0785 4.08627 14.4754 2.48453C12.8757 0.883481 10.7452 0 8.47977 0C6.21507 0 4.08518 0.881408 2.48413 2.48453C0.883075 4.08489 0.000976562 6.21479 0.000976562 8.47949C0.000976562 10.7442 0.882384 12.8734 2.48413 14.4758C4.08518 16.0769 6.21438 16.9604 8.47977 16.9604C10.2765 16.9604 11.9826 16.3983 13.4129 15.3683L17.6395 19.5956C17.9105 19.8659 18.263 20.0007 18.617 20.0007C18.9716 20.0007 19.3249 19.8659 19.5945 19.5956C20.1344 19.055 20.1344 18.1805 19.5945 17.6406ZM4.43981 12.5201C3.36 11.4403 2.76618 10.0045 2.76618 8.47879C2.76618 6.9531 3.36 5.51865 4.43981 4.43884C5.51893 3.35903 6.95338 2.76451 8.47977 2.76451C10.0062 2.76451 11.4413 3.35903 12.5204 4.43884C13.6002 5.51865 14.1947 6.95379 14.1947 8.47949C14.1947 10.0052 13.6009 11.4403 12.5204 12.5208C11.4406 13.6006 10.0069 14.1938 8.47977 14.1938C6.95269 14.1938 5.51755 13.5993 4.43981 12.5201Z" fill="#BBBBBB"/>
</svg>
